<svg width="24" height="24" viewBox="0 0 24 24" fill="none" xmlns="http://www.w3.org/2000/svg">
<path fill-rule="evenodd" clip-rule="evenodd" d="M9 4C7.34315 4 6 5.34315 6 7C6 8.65685 7.34315 10 9 10C10.6569 10 12 8.65685 12 7C12 5.34315 10.6569 4 9 4ZM4 7C4 4.23858 6.23858 2 9 2C11.7614 2 14 4.23858 14 7C14 9.76142 11.7614 12 9 12C6.23858 12 4 9.76142 4 7Z" fill="#8E91A0"/>
<path fill-rule="evenodd" clip-rule="evenodd" d="M7 16C6.20435 16 5.44129 16.3161 4.87868 16.8787C4.31607 17.4413 4 18.2044 4 19V21C4 21.5523 3.55228 22 3 22C2.44772 22 2 21.5523 2 21V19C2 17.6739 2.52678 16.4021 3.46447 15.4645C4.40215 14.5268 5.67392 14 7 14H11C12.3261 14 13.5979 14.5268 14.5355 15.4645C15.4732 16.4021 16 17.6739 16 19V21C16 21.5523 15.5523 22 15 22C14.4477 22 14 21.5523 14 21V19C14 18.2044 13.6839 17.4413 13.1213 16.8787C12.5587 16.3161 11.7956 16 11 16H7Z" fill="#8E91A0"/>
<path fill-rule="evenodd" clip-rule="evenodd" d="M15.0315 2.88184C15.1685 2.34681 15.7133 2.02414 16.2483 2.16113C17.3238 2.43651 18.2771 3.06201 18.9578 3.93902C19.6386 4.81603 20.0081 5.89467 20.0081 7.00488C20.0081 8.11509 19.6386 9.19373 18.9578 10.0707C18.2771 10.9478 17.3238 11.5733 16.2483 11.8486C15.7133 11.9856 15.1685 11.6629 15.0315 11.1279C14.8945 10.5929 15.2172 10.0481 15.7522 9.91113C16.3975 9.7459 16.9695 9.3706 17.3779 8.8444C17.7864 8.31819 18.0081 7.67101 18.0081 7.00488C18.0081 6.33875 17.7864 5.69157 17.3779 5.16536C16.9695 4.63915 16.3975 4.26385 15.7522 4.09863C15.2172 3.96164 14.8945 3.41687 15.0315 2.88184Z" fill="#8E91A0"/>
<path fill-rule="evenodd" clip-rule="evenodd" d="M17.032 14.8999C17.1701 14.3652 17.7155 14.0436 18.2502 14.1817C19.3188 14.4575 20.266 15.0792 20.9443 15.9497C21.6226 16.8201 21.9939 17.8906 22.0002 18.9942L22.0003 18.9999H22.0002V20.9999C22.0002 21.5522 21.5525 21.9999 21.0002 21.9999C20.448 21.9999 20.0002 21.5522 20.0002 20.9999V19.003C19.9959 18.3418 19.7732 17.7006 19.3667 17.179C18.9597 16.6567 18.3914 16.2837 17.7503 16.1182C17.2155 15.9801 16.8939 15.4347 17.032 14.8999Z" fill="#8E91A0"/>
</svg>
